<svg xmlns="http://www.w3.org/2000/svg" xmlns:xlink="http://www.w3.org/1999/xlink" version="1.1" x="0px" y="0px" viewBox="0 0 1582 2892" enable-background="new 0 0 1582 2892" xml:space="preserve"><style>.style0{fill-rule:	evenodd;stroke:	#FFFFFF;stroke-linecap:	round;clip-rule:	evenodd;stroke-width:	3.7169;fill:	none;}.style1{fill-rule:	evenodd;stroke:	#FFFFFF;stroke-linecap:	round;clip-rule:	evenodd;stroke-width:	3.811;fill:	none;}.style10{fill-rule:	evenodd;stroke:	#FFFFFF;stroke-linecap:	round;clip-rule:	evenodd;stroke-width:	2.8343;fill:	none;}.style100{fill-rule:	evenodd;stroke:	#FFFFFF;stroke-linecap:	round;clip-rule:	evenodd;stroke-width:	3.1298;fill:	none;}.style101{fill-rule:	evenodd;stroke:	#FFFFFF;stroke-linecap:	round;clip-rule:	evenodd;stroke-width:	1.4318;fill:	none;}.style102{fill-rule:	evenodd;stroke:	#FFFFFF;stroke-linecap:	round;clip-rule:	evenodd;stroke-width:	3.1289;fill:	none;}.style103{fill-rule:	evenodd;stroke:	#FFFFFF;stroke-linecap:	round;clip-rule:	evenodd;stroke-width:	5.3852;fill:	none;}.style104{fill-rule:	evenodd;stroke:	#FFFFFF;stroke-linecap:	round;clip-rule:	evenodd;stroke-width:	3.12;fill:	none;}.style105{fill-rule:	evenodd;stroke:	#FFFFFF;stroke-linecap:	round;clip-rule:	evenodd;stroke-width:	1.9391;fill:	none;}.style106{fill-rule:	evenodd;stroke:	#FFFFFF;stroke-linecap:	round;clip-rule:	evenodd;stroke-width:	3.6862;fill:	none;}.style107{fill-rule:	evenodd;stroke:	#FFFFFF;stroke-linecap:	round;clip-rule:	evenodd;stroke-width:	2.8723;fill:	none;}.style108{fill-rule:	evenodd;stroke:	#FFFFFF;stroke-linecap:	round;clip-rule:	evenodd;stroke-width:	3.5532;fill:	none;}.style109{fill-rule:	evenodd;stroke:	#FFFFFF;stroke-linecap:	round;clip-rule:	evenodd;stroke-width:	3.0646;fill:	none;}.style11{fill-rule:	evenodd;stroke:	#FFFFFF;stroke-linecap:	round;clip-rule:	evenodd;stroke-width:	3.331;fill:	none;}.style110{fill-rule:	evenodd;stroke:	#FFFFFF;stroke-linecap:	round;clip-rule:	evenodd;stroke-width:	3.0923;fill:	none;}.style111{fill-rule:	evenodd;stroke:	#FFFFFF;stroke-linecap:	round;clip-rule:	evenodd;stroke-width:	2.9761;fill:	none;}.style112{fill-rule:	evenodd;stroke:	#FFFFFF;stroke-linecap:	round;clip-rule:	evenodd;stroke-width:	3.0965;fill:	none;}.style113{fill-rule:	evenodd;stroke:	#FFFFFF;stroke-linecap:	round;clip-rule:	evenodd;stroke-width:	3.3022;fill:	none;}.style114{fill-rule:	evenodd;stroke:	#FFFFFF;stroke-linecap:	round;clip-rule:	evenodd;stroke-width:	3.1623;fill:	none;}.style115{fill-rule:	evenodd;stroke:	#FFFFFF;stroke-linecap:	round;clip-rule:	evenodd;stroke-width:	3.4881;fill:	none;}.style116{fill-rule:	evenodd;stroke:	#FFFFFF;stroke-linecap:	round;clip-rule:	evenodd;stroke-width:	4.4814;fill:	none;}.style117{fill-rule:	evenodd;stroke:	#FFFFFF;stroke-linecap:	round;clip-rule:	evenodd;stroke-width:	2.6277;fill:	none;}.style118{fill-rule:	evenodd;stroke:	#FFFFFF;stroke-linecap:	round;clip-rule:	evenodd;stroke-width:	1.2138;fill:	none;}.style119{fill-rule:	evenodd;stroke:	#FFFFFF;stroke-linecap:	round;clip-rule:	evenodd;stroke-width:	1.7255;fill:	none;}.style12{fill-rule:	evenodd;stroke:	#FFFFFF;stroke-linecap:	round;clip-rule:	evenodd;stroke-width:	4.0702;fill:	none;}.style120{fill-rule:	evenodd;stroke:	#FFFFFF;stroke-linecap:	round;clip-rule:	evenodd;stroke-width:	4.0415;fill:	none;}.style121{fill-rule:	evenodd;stroke:	#FFFFFF;stroke-linecap:	round;clip-rule:	evenodd;stroke-width:	3.3354;fill:	none;}.style122{fill-rule:	evenodd;stroke:	#FFFFFF;stroke-linecap:	round;clip-rule:	evenodd;stroke-width:	3.2027;fill:	none;}.style123{fill-rule:	evenodd;stroke:	#FFFFFF;stroke-linecap:	round;clip-rule:	evenodd;stroke-width:	2.3731;fill:	none;}.style124{fill-rule:	evenodd;stroke:	#FFFFFF;stroke-linecap:	round;clip-rule:	evenodd;stroke-width:	1.576;fill:	none;}.style125{fill-rule:	evenodd;stroke:	#FFFFFF;stroke-linecap:	round;clip-rule:	evenodd;stroke-width:	3.4144;fill:	none;}.style126{fill-rule:	evenodd;stroke:	#FFFFFF;stroke-linecap:	round;clip-rule:	evenodd;stroke-width:	3.6515;fill:	none;}.style127{fill-rule:	evenodd;stroke:	#FFFFFF;stroke-linecap:	round;clip-rule:	evenodd;stroke-width:	3.401;fill:	none;}.style128{fill-rule:	evenodd;stroke:	#FFFFFF;stroke-linecap:	round;clip-rule:	evenodd;stroke-width:	3.202;fill:	none;}.style129{fill-rule:	evenodd;stroke:	#FFFFFF;stroke-linecap:	round;clip-rule:	evenodd;stroke-width:	3.45;fill:	none;}.style13{fill-rule:	evenodd;stroke:	#FFFFFF;stroke-linecap:	round;clip-rule:	evenodd;stroke-width:	3.8522;fill:	none;}.style130{fill-rule:	evenodd;stroke:	#FFFFFF;stroke-linecap:	round;clip-rule:	evenodd;stroke-width:	2.9881;fill:	none;}.style131{fill-rule:	evenodd;stroke:	#FFFFFF;stroke-linecap:	round;clip-rule:	evenodd;stroke-width:	3.0445;fill:	none;}.style132{fill-rule:	evenodd;stroke:	#FFFFFF;stroke-linecap:	round;clip-rule:	evenodd;stroke-width:	4.0497;fill:	none;}.style133{fill-rule:	evenodd;stroke:	#FFFFFF;stroke-linecap:	round;clip-rule:	evenodd;stroke-width:	3.1017;fill:	none;}.style134{fill-rule:	evenodd;stroke:	#FFFFFF;stroke-linecap:	round;clip-rule:	evenodd;stroke-width:	1.1999;fill:	none;}.style135{fill-rule:	evenodd;stroke:	#FFFFFF;stroke-linecap:	round;clip-rule:	evenodd;stroke-width:	1.1883;fill:	none;}.style136{fill-rule:	evenodd;stroke:	#FFFFFF;stroke-linecap:	round;clip-rule:	evenodd;stroke-width:	1.178;fill:	none;}.style137{fill-rule:	evenodd;stroke:	#FFFFFF;stroke-linecap:	round;clip-rule:	evenodd;stroke-width:	1.1669;fill:	none;}.style138{fill-rule:	evenodd;stroke:	#FFFFFF;stroke-linecap:	round;clip-rule:	evenodd;stroke-width:	1.1547;fill:	none;}.style139{fill-rule:	evenodd;stroke:	#FFFFFF;stroke-linecap:	round;clip-rule:	evenodd;stroke-width:	1.1399;fill:	none;}.style14{fill-rule:	evenodd;stroke:	#FFFFFF;stroke-linecap:	round;clip-rule:	evenodd;stroke-width:	3.8527;fill:	none;}.style140{fill-rule:	evenodd;stroke:	#FFFFFF;stroke-linecap:	round;clip-rule:	evenodd;stroke-width:	1.125;fill:	none;}.style141{fill-rule:	evenodd;stroke:	#FFFFFF;stroke-linecap:	round;clip-rule:	evenodd;stroke-width:	1.1085;fill:	none;}.style142{fill-rule:	evenodd;stroke:	#FFFFFF;stroke-linecap:	round;clip-rule:	evenodd;stroke-width:	1.0924;fill:	none;}.style143{fill-rule:	evenodd;stroke:	#FFFFFF;stroke-linecap:	round;clip-rule:	evenodd;stroke-width:	1.0726;fill:	none;}.style144{fill-rule:	evenodd;stroke:	#FFFFFF;stroke-linecap:	round;clip-rule:	evenodd;stroke-width:	1.0599;fill:	none;}.style145{fill-rule:	evenodd;stroke:	#FFFFFF;stroke-linecap:	round;clip-rule:	evenodd;stroke-width:	1.0722;fill:	none;}.style146{fill-rule:	evenodd;stroke:	#FFFFFF;stroke-linecap:	round;clip-rule:	evenodd;stroke-width:	1.0931;fill:	none;}.style147{fill-rule:	evenodd;stroke:	#FFFFFF;stroke-linecap:	round;clip-rule:	evenodd;stroke-width:	1.1267;fill:	none;}.style15{fill-rule:	evenodd;stroke:	#FFFFFF;stroke-linecap:	round;clip-rule:	evenodd;stroke-width:	5;fill:	none;}.style16{fill-rule:	evenodd;stroke:	#FFFFFF;stroke-linecap:	round;clip-rule:	evenodd;stroke-width:	3.8036;fill:	none;}.style17{fill-rule:	evenodd;stroke:	#FFFFFF;stroke-linecap:	round;clip-rule:	evenodd;stroke-width:	2.0132;fill:	none;}.style18{fill-rule:	evenodd;stroke:	#FFFFFF;stroke-linecap:	round;clip-rule:	evenodd;stroke-width:	3.3297;fill:	none;}.style19{fill-rule:	evenodd;stroke:	#FFFFFF;stroke-linecap:	round;clip-rule:	evenodd;stroke-width:	3.9034;fill:	none;}.style2{fill-rule:	evenodd;stroke:	#FFFFFF;stroke-linecap:	round;clip-rule:	evenodd;stroke-width:	3.1721;fill:	none;}.style20{fill-rule:	evenodd;stroke:	#FFFFFF;stroke-linecap:	round;clip-rule:	evenodd;stroke-width:	3.8242;fill:	none;}.style21{fill-rule:	evenodd;stroke:	#FFFFFF;stroke-linecap:	round;clip-rule:	evenodd;stroke-width:	4.674;fill:	none;}.style22{fill-rule:	evenodd;stroke:	#FFFFFF;stroke-linecap:	round;clip-rule:	evenodd;stroke-width:	3.9194;fill:	none;}.style23{fill-rule:	evenodd;stroke:	#FFFFFF;stroke-linecap:	round;clip-rule:	evenodd;stroke-width:	3.6865;fill:	none;}.style24{fill-rule:	evenodd;stroke:	#FFFFFF;stroke-linecap:	round;clip-rule:	evenodd;stroke-width:	3.212;fill:	none;}.style25{fill-rule:	evenodd;stroke:	#FFFFFF;stroke-linecap:	round;clip-rule:	evenodd;stroke-width:	3.82;fill:	none;}.style26{fill-rule:	evenodd;stroke:	#FFFFFF;stroke-linecap:	round;clip-rule:	evenodd;stroke-width:	4.0552;fill:	none;}.style27{fill-rule:	evenodd;stroke:	#FFFFFF;stroke-linecap:	round;clip-rule:	evenodd;stroke-width:	3.3372;fill:	none;}.style28{fill-rule:	evenodd;stroke:	#FFFFFF;stroke-linecap:	round;clip-rule:	evenodd;stroke-width:	4.0606;fill:	none;}.style29{fill-rule:	evenodd;stroke:	#FFFFFF;stroke-linecap:	round;clip-rule:	evenodd;stroke-width:	3.8842;fill:	none;}.style3{fill-rule:	evenodd;stroke:	#FFFFFF;stroke-linecap:	round;clip-rule:	evenodd;stroke-width:	3.6056;fill:	none;}.style30{fill-rule:	evenodd;stroke:	#FFFFFF;stroke-linecap:	round;clip-rule:	evenodd;stroke-width:	3.8859;fill:	none;}.style31{fill-rule:	evenodd;stroke:	#FFFFFF;stroke-linecap:	round;clip-rule:	evenodd;stroke-width:	3.8738;fill:	none;}.style32{fill-rule:	evenodd;stroke:	#FFFFFF;stroke-linecap:	round;clip-rule:	evenodd;stroke-width:	3.6946;fill:	none;}.style33{fill-rule:	evenodd;stroke:	#FFFFFF;stroke-linecap:	round;clip-rule:	evenodd;stroke-width:	3.8258;fill:	none;}.style34{fill-rule:	evenodd;stroke:	#FFFFFF;stroke-linecap:	round;clip-rule:	evenodd;stroke-width:	3.7864;fill:	none;}.style35{fill-rule:	evenodd;stroke:	#FFFFFF;stroke-linecap:	round;clip-rule:	evenodd;stroke-width:	2.9483;fill:	none;}.style36{fill-rule:	evenodd;stroke:	#FFFFFF;stroke-linecap:	round;clip-rule:	evenodd;stroke-width:	3.8797;fill:	none;}.style37{fill-rule:	evenodd;stroke:	#FFFFFF;stroke-linecap:	round;clip-rule:	evenodd;stroke-width:	3.8718;fill:	none;}.style38{fill-rule:	evenodd;stroke:	#FFFFFF;stroke-linecap:	round;clip-rule:	evenodd;stroke-width:	4.1231;fill:	none;}.style39{fill-rule:	evenodd;stroke:	#FFFFFF;stroke-linecap:	round;clip-rule:	evenodd;stroke-width:	3.8707;fill:	none;}.style4{fill-rule:	evenodd;stroke:	#FFFFFF;stroke-linecap:	round;clip-rule:	evenodd;stroke-width:	3.4805;fill:	none;}.style40{fill-rule:	evenodd;stroke:	#FFFFFF;stroke-linecap:	round;clip-rule:	evenodd;stroke-width:	2.0221;fill:	none;}.style41{fill-rule:	evenodd;stroke:	#FFFFFF;stroke-linecap:	round;clip-rule:	evenodd;stroke-width:	2.0209;fill:	none;}.style42{fill-rule:	evenodd;stroke:	#FFFFFF;stroke-linecap:	round;clip-rule:	evenodd;stroke-width:	4.4721;fill:	none;}.style43{fill-rule:	evenodd;stroke:	#FFFFFF;stroke-linecap:	round;clip-rule:	evenodd;stroke-width:	3.8904;fill:	none;}.style44{fill-rule:	evenodd;stroke:	#FFFFFF;stroke-linecap:	round;clip-rule:	evenodd;stroke-width:	3.8552;fill:	none;}.style45{fill-rule:	evenodd;stroke:	#FFFFFF;stroke-linecap:	round;clip-rule:	evenodd;stroke-width:	3.9286;fill:	none;}.style46{fill-rule:	evenodd;stroke:	#FFFFFF;stroke-linecap:	round;clip-rule:	evenodd;stroke-width:	3.8918;fill:	none;}.style47{fill-rule:	evenodd;stroke:	#FFFFFF;stroke-linecap:	round;clip-rule:	evenodd;stroke-width:	3.8628;fill:	none;}.style48{fill-rule:	evenodd;stroke:	#FFFFFF;stroke-linecap:	round;clip-rule:	evenodd;stroke-width:	3.8839;fill:	none;}.style49{fill-rule:	evenodd;stroke:	#FFFFFF;stroke-linecap:	round;clip-rule:	evenodd;stroke-width:	1.2891;fill:	none;}.style5{fill-rule:	evenodd;stroke:	#FFFFFF;stroke-linecap:	round;clip-rule:	evenodd;stroke-width:	3.1287;fill:	none;}.style50{fill-rule:	evenodd;stroke:	#FFFFFF;stroke-linecap:	round;clip-rule:	evenodd;stroke-width:	2.9637;fill:	none;}.style51{fill-rule:	evenodd;stroke:	#FFFFFF;stroke-linecap:	round;clip-rule:	evenodd;stroke-width:	2.1056;fill:	none;}.style52{fill-rule:	evenodd;stroke:	#FFFFFF;stroke-linecap:	round;clip-rule:	evenodd;stroke-width:	3.3777;fill:	none;}.style53{fill-rule:	evenodd;stroke:	#FFFFFF;stroke-linecap:	round;clip-rule:	evenodd;stroke-width:	2.753;fill:	none;}.style54{fill-rule:	evenodd;stroke:	#FFFFFF;stroke-linecap:	round;clip-rule:	evenodd;stroke-width:	3.8928;fill:	none;}.style55{fill-rule:	evenodd;stroke:	#FFFFFF;stroke-linecap:	round;clip-rule:	evenodd;stroke-width:	3.7014;fill:	none;}.style56{fill-rule:	evenodd;stroke:	#FFFFFF;stroke-linecap:	round;clip-rule:	evenodd;stroke-width:	4.062;fill:	none;}.style57{fill-rule:	evenodd;stroke:	#FFFFFF;stroke-linecap:	round;clip-rule:	evenodd;stroke-width:	3.8881;fill:	none;}.style58{fill-rule:	evenodd;stroke:	#FFFFFF;stroke-linecap:	round;clip-rule:	evenodd;stroke-width:	3.8944;fill:	none;}.style59{fill-rule:	evenodd;stroke:	#FFFFFF;stroke-linecap:	round;clip-rule:	evenodd;stroke-width:	5.6569;fill:	none;}.style6{fill-rule:	evenodd;stroke:	#FFFFFF;stroke-linecap:	round;clip-rule:	evenodd;stroke-width:	3.0697;fill:	none;}.style60{fill-rule:	evenodd;stroke:	#FFFFFF;stroke-linecap:	round;clip-rule:	evenodd;stroke-width:	3.931;fill:	none;}.style61{fill-rule:	evenodd;stroke:	#FFFFFF;stroke-linecap:	round;clip-rule:	evenodd;stroke-width:	3.5965;fill:	none;}.style62{fill-rule:	evenodd;stroke:	#FFFFFF;stroke-linecap:	round;clip-rule:	evenodd;stroke-width:	3.9289;fill:	none;}.style63{fill-rule:	evenodd;stroke:	#FFFFFF;stroke-linecap:	round;clip-rule:	evenodd;stroke-width:	5.831;fill:	none;}.style64{fill-rule:	evenodd;stroke:	#FFFFFF;stroke-linecap:	round;clip-rule:	evenodd;stroke-width:	3.8321;fill:	none;}.style65{fill-rule:	evenodd;stroke:	#FFFFFF;stroke-linecap:	round;clip-rule:	evenodd;stroke-width:	3.8406;fill:	none;}.style66{fill-rule:	evenodd;stroke:	#FFFFFF;stroke-linecap:	round;clip-rule:	evenodd;stroke-width:	3.873;fill:	none;}.style67{fill-rule:	evenodd;stroke:	#FFFFFF;stroke-linecap:	round;clip-rule:	evenodd;stroke-width:	2.0226;fill:	none;}.style68{fill-rule:	evenodd;stroke:	#FFFFFF;stroke-linecap:	round;clip-rule:	evenodd;stroke-width:	3.8376;fill:	none;}.style69{fill-rule:	evenodd;stroke:	#FFFFFF;stroke-linecap:	round;clip-rule:	evenodd;stroke-width:	3.8975;fill:	none;}.style7{fill-rule:	evenodd;stroke:	#FFFFFF;stroke-linecap:	round;clip-rule:	evenodd;stroke-width:	3.3748;fill:	none;}.style70{fill-rule:	evenodd;stroke:	#FFFFFF;stroke-linecap:	round;clip-rule:	evenodd;stroke-width:	1.2056;fill:	none;}.style71{fill-rule:	evenodd;stroke:	#FFFFFF;stroke-linecap:	round;clip-rule:	evenodd;stroke-width:	4.2426;fill:	none;}.style72{fill-rule:	evenodd;stroke:	#FFFFFF;stroke-linecap:	round;clip-rule:	evenodd;stroke-width:	3.9594;fill:	none;}.style73{fill-rule:	evenodd;stroke:	#FFFFFF;stroke-linecap:	round;clip-rule:	evenodd;stroke-width:	3.0098;fill:	none;}.style74{fill-rule:	evenodd;stroke:	#FFFFFF;stroke-linecap:	round;clip-rule:	evenodd;stroke-width:	1.9072;fill:	none;}.style75{fill-rule:	evenodd;stroke:	#FFFFFF;stroke-linecap:	round;clip-rule:	evenodd;stroke-width:	5.0498;fill:	none;}.style76{fill-rule:	evenodd;stroke:	#FFFFFF;stroke-linecap:	round;clip-rule:	evenodd;stroke-width:	2.964;fill:	none;}.style77{fill-rule:	evenodd;stroke:	#FFFFFF;stroke-linecap:	round;clip-rule:	evenodd;stroke-width:	2.9089;fill:	none;}.style78{fill-rule:	evenodd;stroke:	#FFFFFF;stroke-linecap:	round;clip-rule:	evenodd;stroke-width:	1.1091;fill:	none;}.style79{fill-rule:	evenodd;stroke:	#FFFFFF;stroke-linecap:	round;clip-rule:	evenodd;stroke-width:	1.5339;fill:	none;}.style8{fill-rule:	evenodd;stroke:	#FFFFFF;stroke-linecap:	round;clip-rule:	evenodd;stroke-width:	3.0671;fill:	none;}.style80{fill-rule:	evenodd;stroke:	#FFFFFF;stroke-linecap:	round;clip-rule:	evenodd;stroke-width:	1.4841;fill:	none;}.style81{fill-rule:	evenodd;stroke:	#FFFFFF;stroke-linecap:	round;clip-rule:	evenodd;stroke-width:	1.4184;fill:	none;}.style82{fill-rule:	evenodd;stroke:	#FFFFFF;stroke-linecap:	round;clip-rule:	evenodd;stroke-width:	2.9155;fill:	none;}.style83{fill-rule:	evenodd;stroke:	#FFFFFF;stroke-linecap:	round;clip-rule:	evenodd;stroke-width:	3.0674;fill:	none;}.style84{fill-rule:	evenodd;stroke:	#FFFFFF;stroke-linecap:	round;clip-rule:	evenodd;stroke-width:	2.9917;fill:	none;}.style85{fill-rule:	evenodd;stroke:	#FFFFFF;stroke-linecap:	round;clip-rule:	evenodd;stroke-width:	2.9665;fill:	none;}.style86{fill-rule:	evenodd;stroke:	#FFFFFF;stroke-linecap:	round;clip-rule:	evenodd;stroke-width:	5.099;fill:	none;}.style87{fill-rule:	evenodd;stroke:	#FFFFFF;stroke-linecap:	round;clip-rule:	evenodd;stroke-width:	3.0277;fill:	none;}.style88{fill-rule:	evenodd;stroke:	#FFFFFF;stroke-linecap:	round;clip-rule:	evenodd;stroke-width:	1.1619;fill:	none;}.style89{fill-rule:	evenodd;stroke:	#FFFFFF;stroke-linecap:	round;clip-rule:	evenodd;stroke-width:	2.9963;fill:	none;}.style9{fill-rule:	evenodd;stroke:	#FFFFFF;stroke-linecap:	round;clip-rule:	evenodd;stroke-width:	3.0194;fill:	none;}.style90{fill-rule:	evenodd;stroke:	#FFFFFF;stroke-linecap:	round;clip-rule:	evenodd;stroke-width:	2.8284;fill:	none;}.style91{fill-rule:	evenodd;stroke:	#FFFFFF;stroke-linecap:	round;clip-rule:	evenodd;stroke-width:	3.2427;fill:	none;}.style92{fill-rule:	evenodd;stroke:	#FFFFFF;stroke-linecap:	round;clip-rule:	evenodd;stroke-width:	1.4409;fill:	none;}.style93{fill-rule:	evenodd;stroke:	#FFFFFF;stroke-linecap:	round;clip-rule:	evenodd;stroke-width:	3.3352;fill:	none;}.style94{fill-rule:	evenodd;stroke:	#FFFFFF;stroke-linecap:	round;clip-rule:	evenodd;stroke-width:	2.9257;fill:	none;}.style95{fill-rule:	evenodd;stroke:	#FFFFFF;stroke-linecap:	round;clip-rule:	evenodd;stroke-width:	3.9115;fill:	none;}.style96{fill-rule:	evenodd;stroke:	#FFFFFF;stroke-linecap:	round;clip-rule:	evenodd;stroke-width:	3.1369;fill:	none;}.style97{fill-rule:	evenodd;stroke:	#FFFFFF;stroke-linecap:	round;clip-rule:	evenodd;stroke-width:	1.6382;fill:	none;}.style98{fill-rule:	evenodd;stroke:	#FFFFFF;stroke-linecap:	round;clip-rule:	evenodd;stroke-width:	3.1189;fill:	none;}.style99{fill-rule:	evenodd;stroke:	#FFFFFF;stroke-linecap:	round;clip-rule:	evenodd;stroke-width:	1.1916;fill:	none;}</style><g><path d=" M1310.5 888c9.039 1.3 18.24 1.38 27.24 2.943c0.462-0.021 1.563-0.273 2.782-0.725c12.563-16.668 0.924-49.701 12.435-59.643 c5.372-4.639 13.471-0.419 16.955-9.387c4.367-11.236 0.841-32.228 5.086-47.938" class="style0"/><path d=" M1304 885.5c-0.743-1.052-0.87-1.879-0.96-2.874c-0.669-1.29-1.892-2.483-2.929-3.362c-30.126-3.721-60.471-5.549-90.58-9.242 c-0.977 0.598-1.43 1.152-2.071 1.722c-3.39 30.508-5.977 61.143-9.009 91.711c28.78 8 63.41 7.92 93.95 10.82 c0.77-2.539 2.819-4.375 4.27-6.503c9.224 0.86 19.861-0.541 28.16 4.39" class="style1"/><path d=" M69.643 2800.285c17.071-8.262 35.95-13.746 53.714-21.07" class="style2"/><path d=" M123.357 2779.215c0.333-0.5 0.667-1 1-1.5" class="style3"/><path d=" M124.357 2777.715c-2.497-20.506 17.768-35.902 36.451-37.984" class="style4"/><path d=" M160.808 2739.73c28.024-15.949 60.14-28.019 89.835-42.016" class="style5"/><path d=" M250.643 2697.715c4.562-3.398 10.419-5.113 14.357-9.465" class="style6"/><path d=" M265 2688.25c-0.348-36.644 5.465-72.275 36-101.686c29.772-28.674 74.944-39.496 113.479-27.008 c13.695 4.44 27.64 13.22 41.48 19.58" class="style7"/><path d=" M455.955 2579.137c5.816-1.037 10.083-5.429 15.295-7.887" class="style8"/><path d=" M471.25 2571.25c100.784-66.262 206.155-152.915 294.998-241.007c0.896-0.888 1.894-1.96 3.19-3.25 c127.56-126.888 249.494-275.078 299.119-435.473c41.454-133.988 43.357-277.583 2.884-414.993 C1027.312 1326.71 934.54 1191.85 805 1098" class="style9"/><path d=" M805 1098c-1.418 1.454-3.176 2.021-4.953 2.859c-62.182-4.912-112.682-48.499-150.103-93.901 c9.469-11.914 17.119-26.422 28.014-36.516c31.603 18.51 66.8 28.82 92.74 56.689c14.21 15.27 32.72 35.01 41.71 58.46 c-0.327 1.664-1.599 3.159-2.159 4.65" class="style10"/><path d=" M810.25 1090.25c278.718 203.8 364.97 556.02 248.35 860.63" class="style11"/><path d=" M1321.5 1159.5c0.619-0.929 1.238-1.857 1.857-2.786" class="style3"/><path d=" M1323.357 1156.714c-0.64-10.37-0.498-20.96-0.071-31.357" class="style12"/><path d=" M1323.286 1125.357c-7.543-4.589-31.88 2.866-25.298-11.904c4.952-1.876 10.13 1.2 15.01 0.05" class="style13"/><path d=" M1313 1113.5c0.938-10.383 1.839-20.767 3-31.125" class="style14"/><line x1="1316" y1="1082.38" x2="1316" y2="1082.38" class="style15"/><path d=" M1316 1082.375c-1.819-0.277-3.618-0.535-5.42-0.915c-1.269-0.697-3.182-2.43-3.479-3.287c1.672-29.487 5.75-58.763 7.924-88.225 c0.649-1.485 1.832-2.77 2.865-3.676c3.559 0.24 7.37-1.019 8.109-5.022" class="style16"/><path d=" M1316 1082.375c2.389-21.297 3.09-43.355 6.952-64.107c11.197 0.78 22.51 2.65 33.92 2.73" class="style17"/><path d=" M1382 766c40.182-353.881-261.263-682.795-610.951-675.16c-0.717-0.935-1.427-2.042-2.049-2.84" class="style18"/><path d=" M769 88c-19.173 7.016-44.55 8.115-64.53 7.257c-1.064-11.397-0.199-23.07-0.448-34.57c0.554-0.728 1.148-1.153 1.728-1.687" class="style19"/><path d=" M1412.115 1091.654c1.94 0.46 3.96 0.34 5.94 0.32c1.751-0.552 3.147-2.123 3.845-3.783c2.299-29.567 6.033-58.934 8.13-88.517 c-0.574-1.719-2.348-2.737-3.469-4.111c-0.353-0.354-0.704-0.708-1.057-1.062" class="style20"/><path d=" M1425.5 994.5c-0.97-0.586-1.987-1.203-3.007-1.82c-0.598-4.088-1.422-9.195 0.864-12.965" class="style21"/><path d=" M1423.357 979.714c0.69-24.592 3.925-49.495 6.81-73.714" class="style22"/><path d=" M1430.167 906c-0.832-5.157-6.087-6.285-8.905-9.888c-3.469-21.223 17.736-56.025-9.618-65.032 c-6.382-18.242 1.968-39.589 1.938-59.029c-0.515-0.833-1.052-1.394-1.582-2.052" class="style23"/><path d=" M77.357 2822.715c-8.751 5.393-19.397 7.667-29.107 11.29" class="style24"/><path d=" M769 67c-18.56-6.19-39.438-4.165-58.75-8" class="style25"/><path d=" M710.25 59c-1.416 0-3.143 0-4.5 0" class="style26"/><path d=" M1407.277 768.444c0.137-0.32 0.271-0.641 0.407-0.961c19.769-189.975-52.271-373.847-181.691-510.921 C1109.3 132.97 937.87 64.8 769 67" class="style27"/><path d=" M769 67c0 7 0 14 0 21" class="style28"/><path d=" M1383 1024c7.646-85.238 16.506-170.307 24.277-255.556" class="style29"/><path d=" M1407.277 768.444c-8.44-0.904-16.853-1.585-25.277-2.444" class="style30"/><path d=" M1382 766c-8.796 84.964-15.878 170.161-25.125 255" class="style31"/><path d=" M1423.357 979.714c2.956 0.32 6.2 0.77 8.997-0.488c0.615-1.283 1.879-1.946 2.885-2.916c0.854-18.16 8.333-39.04 2.261-55.811 " class="style32"/><path d=" M1425.5 994.5c16.908-1.398 40.42 1.72 59.56 3.554c14.857 1.43 31.19 6.48 37.357-1.008 c3.638-4.418 2.894-16.427 3.631-24.111c1.447-15.075 3.584-33.48 4.946-44.685" class="style33"/><path d=" M1531 928.25c0-1.416 0-3.143 0-4.5" class="style26"/><path d=" M1531 923.75c-2.352-11.648-20.751-9.718-32.065-10.804c-24.062-2.31-53.433-5.746-68.768-6.946" class="style34"/><path d=" M805 1098c1.013-2.943 2.91-5.729 5.25-7.75" class="style35"/><path d=" M1316 1082.375c11.494 0.12 23.02 2.53 34.62 2.62" class="style36"/><path d=" M1350.625 1085c3.114-20.892 4.337-41.984 6.5-63" class="style37"/><path d=" M1357.125 1022c-0.084-0.333-0.166-0.667-0.25-1" class="style38"/><path d=" M1376 1088.375c0.333-0.25 0.667-0.5 1-0.75" class="style15"/><path d=" M1377 1087.625c1.486-21.266 3.62-42.452 6-63.625" class="style39"/><path d=" M1383 1024c-8.635-0.642-17.126-2.109-25.875-2" class="style40"/><path d=" M1411.885 1091.346c1.147-21.312 5.371-43.381 5.17-64.08c-11.389-1.062-22.692-2.221-34.055-3.267" class="style41"/><line x1="1383" y1="1024" x2="1383" y2="1024" class="style42"/><path d=" M1313 1113.5c11.451 1.78 23.02 2.96 34.62 3.5" class="style43"/><path d=" M1347.625 1117c2.01-10.269 1.912-20.708 3.75-31" class="style44"/><path d=" M1351.375 1086c-0.25-0.333-0.5-0.667-0.75-1" class="style15"/><path d=" M1373 1120.375c0.333-0.25 0.667-0.5 1-0.75" class="style15"/><path d=" M1374 1119.625c-0.313-10.526 2.6-20.689 2-31.25" class="style45"/><path d=" M1376 1088.375c-8.008-1.977-16.34-2.358-24.625-2.375" class="style46"/><path d=" M1409 1122.5c0.738-10.311 1.435-20.657 3.115-30.846" class="style47"/><path d=" M1412.115 1091.654c-0.077-0.103-0.153-0.205-0.23-0.308" class="style15"/><path d=" M1411.885 1091.346c-11.631-1.46-23.288-1.979-34.885-3.721" class="style48"/><path d=" M476.1 2578.9c0.267 0.07 0.53 0.13 0.8 0.2" class="style38"/><path d=" M476.9 2579.1c202.703-135.238 382.254-309.309 519.6-510.6" class="style49"/><path d=" M484.5 2590.5c465.686-303.893 784.375-819.103 852.429-1368.286" class="style50"/><path d=" M1336.929 1222.214c-0.019-0.072-0.036-0.143-0.054-0.214" class="style38"/><path d=" M1336.875 1222c-4.433-0.088-8.913-0.736-13.12-1.772c-0.217-0.463-0.424-0.833-0.63-1.197 c-1.262-19.695 1.918-40.549-1.625-59.531" class="style51"/><path d=" M1321.5 1159.5c-0.302 0.1-0.604 0.2-0.906 0.3c-28.011 209.155-57.62 381.075-172.101 625.65 c-30.663 65.511-75.164 149.829-89.897 165.43" class="style52"/><path d=" M1058.596 1950.881c-19.453 38.895-35.134 76.767-58.596 112.62" class="style53"/><path d=" M1323.286 1125.357c7.896-0.688 15.83 0.99 23.71 1.64" class="style54"/><path d=" M1347 1127c0.046-3.056 1.086-5.97 1.375-9" class="style55"/><path d=" M1348.375 1118c-0.25-0.333-0.5-0.667-0.75-1" class="style15"/><path d=" M1372.5 1129.5c0.768-2.98 0.414-6.084 0.5-9.125" class="style56"/><path d=" M1373 1120.375c-8.008-1.977-16.34-2.358-24.625-2.375" class="style46"/><path d=" M1396.286 1132.357c9.036-1.621 18.53 3.31 27.23 0.649c4.031-10.656-8.437-8.255-14.514-10.506" class="style57"/><path d=" M1409 1122.5c-11.584 0.411-23.365-1.76-35-2.875" class="style58"/><line x1="1344" y1="1159" x2="1344" y2="1159" class="style59"/><path d=" M1344 1159c0.979-10.677 2.111-21.319 3-32" class="style14"/><path d=" M1369.5 1161.5c1.181-10.675 2.09-21.298 3-32" class="style60"/><path d=" M1372.5 1129.5c-8.531-0.787-16.966-1.941-25.5-2.5" class="style30"/><line x1="1347" y1="1127" x2="1347" y2="1127" class="style59"/><path d=" M1390 1163c2.07-10.225 4.642-20.339 6.286-30.643" class="style61"/><path d=" M1396.286 1132.357c-7.555-2.447-15.896-1.66-23.786-2.857" class="style62"/><line x1="1372.5" y1="1129.5" x2="1372.5" y2="1129.5" class="style63"/><path d=" M1336.875 1222c2.758-20.97 4.807-41.99 7.125-63" class="style64"/><path d=" M1344 1159c-6.878-0.978-13.762-1.335-20.643-2.286" class="style65"/><path d=" M1356.5 1160c-4.246 0.358-8.216-1.669-12.5-1" class="style66"/><path d=" M1336.929 1222.214c8.311 1.01 16.54 2.45 24.95 2.79" class="style67"/><path d=" M1361.875 1225c3.871-20.941 5.133-42.318 7.625-63.5" class="style68"/><path d=" M1369.5 1161.5c-4.375-0.303-8.643-1.208-13-1.5" class="style69"/><path d=" M1356.5 1160c-1.168 14.878-2.41 30.013-5 44.5" class="style70"/><path d=" M1390.833 1163.833c-0.277-0.278-0.555-0.556-0.833-0.833" class="style71"/><path d=" M1390 1163c-6.881-0.08-13.626-1.176-20.5-1.5" class="style72"/><line x1="1369.5" y1="1161.5" x2="1369.5" y2="1161.5" class="style63"/><path d=" M511.167 2632c0.272-0.014 0.543-0.026 0.815-0.039c112.814-69.92 212.791-161.303 307.437-250.925 c226.189-214.183 416.449-548.831 502.141-845.509c26.901-93.139 51.331-205.141 64.494-307.594 c2.354-18.317 8.523-51.458 4.779-64.1" class="style73"/><path d=" M1390.833 1163.833c-6.875 20.26-8.185 42.635-14.777 62.903c-4.723 1.019-9.112-1.688-13.931-0.736" class="style74"/><line x1="498.5" y1="2612.5" x2="498.5" y2="2612.5" class="style75"/><path d=" M498.5 2612.5c471.381-308.762 795.162-829.887 863.625-1386.5" class="style76"/><path d=" M1362.125 1226c-0.083-0.333-0.167-0.667-0.25-1" class="style38"/><path d=" M484.5 2591.5c2.118 3.8 4.9 7.19 7 11" class="style77"/><path d=" M491.5 2602.5c15.209-11.583 31.62-21.623 47-33" class="style78"/><path d=" M265 2688.25c0.397 0.17 0.8 0.35 1.19 0.521c30.061-13.322 58.474-30.628 87.779-45.514 c4.922 4.97 13.4 5.23 18.028-0.507" class="style79"/><path d=" M372 2642.75c0.252-3.329-0.301-6.807-0.181-9.953c27.925-17.862 58.893-32.809 84.136-53.66" class="style80"/><path d=" M372 2642.75c0.164 0.06 0.33 0.11 0.49 0.171c35.354-19.831 70.083-41.104 103.607-64.021" class="style81"/><path d=" M476.1 2578.9c-1.441-2.654-3.31-5.055-4.85-7.65" class="style82"/><path d=" M250.643 2697.715c2.769 7.13 5.96 14.15 9.86 20.79" class="style83"/><path d=" M260.5 2718.5c77.604-36.69 151.692-80.585 224-127" class="style84"/><path d=" M484.5 2591.5c0-0.334 0-0.667 0-1" class="style75"/><path d=" M484.5 2590.5c-2.936-3.497-5.651-7.256-7.6-11.4" class="style85"/><line x1="260.5" y1="2718.5" x2="260.5" y2="2718.5" class="style86"/><path d=" M260.5 2718.5c1.492 4.06 4.05 7.71 5.29 11.86" class="style87"/><path d=" M265.786 2730.357c0.143 0.1 0.29 0.19 0.43 0.28" class="style3"/><path d=" M266.214 2730.643c15.894-8.361 32.08-16.459 48.286-24.143" class="style88"/><path d=" M271.857 2741.571c78.479-37.501 153.948-81.19 226.643-129.071" class="style89"/><path d=" M498.5 2612.5c-2.531-3.191-4.449-6.829-7-10" class="style90"/><path d=" M282.167 2763c6.781-1.002 12.083-6.784 19.083-7" class="style91"/><path d=" M301.25 2756c63.393-35.221 128.887-70.086 190.25-109.5" class="style92"/><path d=" M301.25 2756c52.906 38.76 114.96 41.18 160.445-4.131c28.352-28.244 37.936-64.479 34.32-107.046 c3.546-5.833 11.104-7.702 15.151-12.823" class="style93"/><path d=" M511.167 2632c-3.971-6.652-8.692-12.849-12.667-19.5" class="style94"/><path d=" M160.808 2739.73c2.276 2.11 6.49 0.63 7.94 3.77" class="style95"/><path d=" M168.75 2743.5c6.892-0.85 13.57 3.85 17.75 9" class="style96"/><path d=" M186.5 2752.5c0.333 0 0.67 0 1 0" class="style75"/><path d=" M187.5 2752.5c0.167-0.167 0.333-0.333 0.5-0.5" class="style71"/><path d=" M188 2752c-0.034-0.966 0.029-1.891 0.162-2.785c9.96-7.258 22.951-15.45 35.171-13.882" class="style97"/><path d=" M271.5 2741.5c-1.891-3.564-3.172-7.405-5.286-10.857" class="style98"/><path d=" M265.786 2730.357c-6.466 4.492-14.47 6.027-20.786 10.64" class="style99"/><path d=" M260.5 2718.5c-8.455 5.664-19.099 7.585-26.833 14.17" class="style100"/><path d=" M233.667 2732.667c4.246 2.18 7.76 5.3 11.33 8.33" class="style101"/><path d=" M188 2752c11.795-5.342 24.636-9.579 35.333-16.667" class="style102"/><path d=" M198 2776c1.684-0.51 3.666-0.158 5.167-1.167" class="style103"/><path d=" M203.167 2774.833c7.894-6.183 18.255-9.032 27.333-13.333" class="style104"/><path d=" M243 2754.875c1.166-4.581 0.919-9.314 2-13.875" class="style105"/><path d=" M233.667 2732.667c-3.547 0.601-6.698 2.483-10.333 2.67" class="style106"/><path d=" M187.5 2752.5c2.395 3.41 5.22 6.76 6.29 10.86" class="style107"/><path d=" M193.786 2763.357c2.633 3.73 2.29 8.61 4.21 12.64" class="style108"/><path d=" M124.357 2777.715c3.525-0.355 7.671-0.951 9.943-4.015" class="style3"/><path d=" M134.3 2773.7c0.034-18.933 22.464-21.651 34.45-30.2" class="style109"/><path d=" M187 2805.625c32.475-11.266 64.374-26.998 95.167-42.625" class="style110"/><path d=" M282.167 2763c-3.581-7.061-7.711-13.952-10.31-21.429" class="style111"/><path d=" M271.857 2741.571c-0.119-0.024-0.238-0.047-0.357-0.071" class="style86"/><path d=" M271.5 2741.5c-9.32 4.793-18.472 10.349-28.5 13.38" class="style112"/><path d=" M243 2754.875c-3.755 2.956-8.254 4.758-12.5 6.62" class="style113"/><path d=" M134.3 2773.7c15.34-3.208 29.033-12.595 44.2-16.45" class="style114"/><path d=" M178.5 2757.25c2.45-1.924 5.397-3.058 8-4.75" class="style115"/><path d=" M187.929 2778.929c2.768-1.028 5.735-0.736 8.571-1.429" class="style116"/><path d=" M196.5 2777.5c0.5-0.5 1-1 1.5-1.5" class="style59"/><path d=" M178.5 2757.25c0.317 4.588-3.93 9.873-0.667 13.92" class="style117"/><path d=" M177.833 2771.167c4.759-3.45 11.055-4.396 15.952-7.81" class="style118"/><path d=" M123.357 2779.215c0.459 8.72 3.88 17.03 9.39 23.79" class="style119"/><path d=" M132.75 2803c0.47 0 0.86 0 1.25 0" class="style120"/><path d=" M134 2803c3.196-2.062 6.924-3.98 10.833-4" class="style121"/><path d=" M144.833 2799c13.429-8.234 30.216-10.897 43.095-20.071" class="style122"/><path d=" M187.929 2778.929c-3.725-1.977-8.198-3.537-10.095-7.762" class="style123"/><path d=" M203.167 2774.833c10.533 3.01 20.032-5.982 28.508-10.858c-0.067-0.634-0.585-1.598-1.174-2.475" class="style124"/><path d=" M144.833 2799c13.25 14.2 32.27 0.01 46.867-3.7" class="style125"/><path d=" M191.7 2795.3c4.361-4.509 5.967-11.697 4.8-17.8" class="style126"/><path d=" M69.643 2800.285c2.198 7.63 5 14.95 7.71 22.43" class="style127"/><path d=" M77.357 2822.715c18.877-4.326 36.941-13.167 55.393-19.715" class="style128"/><path d=" M134 2803c12.999 16.27 37.67 14.07 53 2.62" class="style129"/><path d=" M187 2805.625c0.371-3.946 4.97-6.174 4.7-10.325" class="style130"/><path d=" M35.333 2818c1.207 6.31 3.4 14.16 10.42 16" class="style131"/><path d=" M45.75 2834c0.839 0 1.7 0 2.5 0" class="style132"/><path d=" M69.643 2800.285c-11.46 4.182-29.691 4.72-34.31 17.71" class="style133"/><path d=" M1333.5 1325.5c5.018-24.667 9.216-49.812 12-75" class="style134"/><path d=" M1307.5 1445.5c6.801-24.302 12.268-49.175 17-74" class="style135"/><path d=" M1274.5 1563.5c7.511-23.886 15.128-47.764 21-72" class="style136"/><path d=" M1234.5 1678.5c8.129-23.31 17.58-46.438 25-70" class="style137"/><path d=" M1186.5 1791.5c9.995-23.337 21.337-46.264 30-70" class="style138"/><path d=" M1131.5 1901.5c12.082-22.333 23.262-45.401 35-68" class="style139"/><path d=" M1070.5 2006.5c13.339-21.387 25.889-43.479 39-65" class="style140"/><path d=" M1045.5 2045.5c-14.083 20.858-27.716 42.059-43 62" class="style141"/><path d=" M928.5 2205.5c15.9-19.811 31.372-39.969 47-60" class="style142"/><path d=" M848.5 2297.5c17.249-18.196 33.564-37.143 50-56" class="style143"/><path d=" M763.5 2384.5c17.397-17.5 34.877-34.334 52-52" class="style144"/><path d=" M671.5 2467.5c18.776-17.271 38.763-33.049 57-51" class="style145"/><path d=" M576.5 2542.5c19.627-15.371 39.726-30.157 59-46" class="style146"/><path d=" M435.5 2637.5c-26.371 16.164-53.217 31.539-80 47" class="style147"/></g></svg>